<?xml version="1.0" encoding="utf-8"?>
<!-- Generator: Adobe Illustrator 22.1.0, SVG Export Plug-In . SVG Version: 6.00 Build 0)  -->
<svg version="1.1" id="Layer_1" xmlns="http://www.w3.org/2000/svg" xmlns:xlink="http://www.w3.org/1999/xlink" x="0px" y="0px"
	 viewBox="0 0 1024 1024" style="enable-background:new 0 0 1024 1024;" xml:space="preserve">
<style type="text/css">
	.st0{fill:#4EA5E0;}
</style>
<g>
	<g>
		<g>
			<g>
				<g>
					<path class="st0" d="M397,231.2C396.6,231.2,396.7,231.6,397,231.2L397,231.2z"/>
					<path class="st0" d="M622.8,157.9c0.1,0.1,0.1,0.1,0.2,0.2c0.8-0.6,1.6-1.1,2.2-1.4L622.8,157.9z"/>
					<path class="st0" d="M648.9,194.7c0,0.1,0,0.2,0,0.4C649.3,194.7,649.8,194.3,648.9,194.7z"/>
					<path class="st0" d="M510.7,71.7c-0.3-0.3-0.4,0.1-0.4,0.6C510.4,72,510.5,71.8,510.7,71.7z"/>
					<path class="st0" d="M343.8,283.6c0,0,0-0.1,0.1-0.2c-0.2-0.1-0.4-0.1-0.7-0.2L343.8,283.6z"/>
					<path class="st0" d="M343.3,281.7c1.2,0,0.7,1.3,0.5,1.7c1.6,0.4,2.5-0.1,2.9-1.2C345.7,280.9,344.4,282.3,343.3,281.7z"/>
					<path class="st0" d="M237.2,370.2l0-0.7C237.2,369.7,237.2,369.9,237.2,370.2z"/>
					<path class="st0" d="M537.4,194.7c0,0.2,0.1,0.5,0.1,0.7C537.6,195.4,537.5,195.1,537.4,194.7z"/>
					<path class="st0" d="M255.7,358.5l-1.3-2.1C254.9,357.3,255.3,358,255.7,358.5z"/>
					<path class="st0" d="M625.2,156.7l0.9-0.5C625.9,156.3,625.5,156.5,625.2,156.7z"/>
					<path class="st0" d="M673.7,228.4c-0.6,0.5-1,0.9-1.4,1.3c0,0,0,0.1,0.1,0.1L673.7,228.4z"/>
					<path class="st0" d="M781.3,386.7c0.1-0.3,0.2-0.6,0.3-0.9l-1.5,1.2C780.5,387,780.9,386.9,781.3,386.7z"/>
					<path class="st0" d="M695.5,276.2c0.2-0.1,0.5-0.2,0.8-0.4c0.1-1.1-1.1-2.9-2.9-5.1l-2.5,1.7C692.4,273.8,694,275,695.5,276.2z
						"/>
					<path class="st0" d="M690.1,366.8l-0.3-4.1l-0.4-4.2c4.1,2.3,7.2,4.6,9.7,6.7c2.6,2.2,4.6,4.3,6.5,6.2
						c3.7,3.8,7.3,7.5,14.6,10.9l-1.5,0.4c0.4,1.3,3-0.4,6.6,1.4c0.9,0.4,1.8,1.1,2.9,2.1c1,1,2.1,2.3,3.2,4
						c1.2,1.7,2.4,3.9,3.7,6.7c1.4,2.8,2.8,6.1,4.8,10.2l-0.4,0.5c0.9,0.6,1.6-0.4,2.5,2.3c-0.7-2.1-1.4-4.2-2.1-6.3
						c1.8,0.4,3.6,0.5,5.5,0.7c1.9,0.2,3.9,0.6,5.8,1.8c0.4,1.1-0.1,2.3-0.5,3.2c3.4,1.8,6.7,3.7,10.5,5.3c0.4,1.7,0.9,3.5,1.4,5.3
						c2.3,0,3.9-2.1,5.9-3.1c2-1,4-0.9,8.2,3.1c-0.8-3.4,0.7-3.7,2.4-3.6c0.8,0,1.7,0.2,2.4,0.1c0.7-0.1,1.1-0.4,1-1.2
						c0.3,0.8,1.1,2.2,1.8,3.4c1.6,0.3,3.5,0.6,5.6,0.8c2.1,0.1,4.4,0.2,6.5,0.1c1,0,2.1-0.2,3.1-0.3c1-0.2,1.9-0.3,2.7-0.6
						c1.7-0.4,3-1,3.7-1.7c0,0-1.5-0.9-3.7-2.3c-1.1-0.7-2.4-1.6-3.7-2.5c-1.3-1-2.7-2.2-4-3.4c-0.7-0.6-1.3-1.2-2-1.9
						c-0.7-0.6-1.2-1.4-1.8-2c-1.2-1.4-2.2-2.7-3.2-4.1c-1.8-2.7-3-5.3-3.6-7.1c5.5,3.8,1.8-0.1,1.4-2.3l-0.9,1.2
						c-1.5-1.4-1.8-3-1.9-4.3c-0.1-1.4,0-2.6-0.5-3.4c-0.1,0.3-0.2,0.6-0.4,0.9l0.4-0.3c-0.1,0.6-0.4,1-0.8,1.2
						c-0.3,0.7-0.7,1.2-1.5,0.6l0.3-0.3c-1.6-0.3-3.6-2.1-4.4-2.8l1.5-2.6c-2.6,1.8-5.3-2.5-7-7.4c-0.9-2.4-1.6-5.1-2.2-7.2
						c-0.6-2.2-1.1-3.9-1.7-4.4c0-5-6.3-4.2-8.1-8.5c-4.3-5.3,0.5-5.5-0.3-9.8c-1.9-4.3-1.7,3.2-3.2,2.1c-0.3-2.2-0.6-4.4-1-6.6
						c2.5,1.8,2.5-0.7,2.9-1.9c-1.5-1.8-2.6-4.8-4.2-7.2c-0.8-1.1-1.6-2.1-2.5-2.5c-1-0.4-2.1-0.3-3.3,0.6
						c-3.1-6.4-1.6-8.3-3.6-10.3c0,1.4,0.8,3.4,0.1,4.3c-0.3-3.7-1.4-0.3-0.9,0.9c-2.3-0.2-4.5-5.5-6.7-10.1c-2.2-4.6-4.2-8.4-6.5-6
						l0.7-0.9c-3.7,3.3-5.6,7.9-9.3,8.5l0.1-2.8l-3.3,0.1c-0.3-2.3,1.2-2.8,1.5-3.3c-4.6-0.8-7.1-6.4-10-10
						c-1.8,4.4-3.5,8.9-5.1,13.4c-0.6-2.5-1.2-6.2-2-8.9c-0.4-1.3-0.9-2.4-1.4-3.1c-0.6-0.6-1.3-0.7-2.2-0.1c0.5-1.6,1-3.3,1.5-4.9
						c0.4-5.8-1.2-6.1-2.9-5.6c-1.8,0.6-3.7,2-3.8,0c0.3-2.1,0.7-4.2,1.1-6.2c0.8,1,1.7,2,2.5,3c-0.4-2.3-0.5-4-0.4-5.7
						c0-1.7,0.2-3.3,0.5-5.5c0,0-0.1,0-0.1,0.1c0,0.3-0.1,0.5-0.3,0.8l-0.4-0.3c-2.2,1.2-4.8,0.6-6.4-1.7c-1.9-3.6-6.7-4-6.4-12.4
						l-5,1.6l-0.5-5.8l3.3-2.3c2.7,4.2,9.2,10.7,13,15.2l1.5-1c-2.1-2.7-6-5-7.1-7.2c-0.1-1.4,1.5-6.3,5-6.1l-4.5,0.5
						c-3.8-4.9-5.7-7.4-7.3-10.4c-1.5-3-2.6-6.3-4.8-13.4l-0.9,2.2c-2.6-1.6-5.1-3.2-3-5.7c-2.2-3.7-4.3-7.7-5.7-11.8
						c-0.7-2-1.3-4.1-1.6-6.1c-0.4-2-0.5-4-0.5-5.9l-4.5,2c-1-1.6,2.8-8.3-2.9-4.8l-4.1-1.7c-1.4-2.2-4.4-1.6-4.2-5.5l0,0
						c0,0,0,0,0,0c0-0.2,0-0.5,0.1-0.8c-0.1,0.1-0.2,0.2-0.3,0.3c-2.2-5.6-3.1,2.8-5.4-3.8c1.1-3.8-6,2.3-7.3-0.7l2.9-6.9
						c-0.5-3.4-2.2-4.2-4.4-4.8c-2.3-0.6-5.1-1.1-7.9-4c-1-4.5,1.8-9.9,7.3-11.6c-7,1.8-4,1.7-9.5,0.4c1.3-2.3,2-2.3,4.4-3.2
						c-0.9-5.1-3.5-0.3-5.6-2.6c-4,2.8-10.2,7.5-11.1,7l-0.2,1.9c-4.2-0.5-7.5-2.2-8.6-6.5l1.8-1.6l-3.8-1.9l1.9-2.4
						c-1.6-1.1-3.3-2.2-4.9-3.3l0,1.1c-0.6-0.3-2-1-3.2-2.1c-0.6-0.5-1.2-1.1-1.7-1.7c-0.2-0.3-0.6-0.8-0.9-1.2
						c-0.3-0.5-0.6-1-0.9-1.5l1.2-1.2c-2.6-6-7.1-9.5-11.9-12.3c-4.8-2.8-9.9-4.7-15-8.8c0.8-0.8,1.7-1.6,2.5-2.4
						c-2.4-6.8-2.8,4.7-6.3-0.6l1-4.8c-2.7,1.4-3.7,0.1-4.5-2.2c-0.8-2.4-1.2-5.7-2.4-8.2c0.1,2.5,0.1,5.1,0.1,7.6l-4.6-5.6
						c-2.5-3.4-3.2-6.4-3-8.8c0.1-2.4,1.1-4.3,1.7-5.7c-1.5,0.6-3,1.3-4.4,2.1l-0.4-7c-1.7,2.4-2.3,1.5-3.3-0.1
						c-1-1.6-2.3-4-4.8-4.1c-0.5-2.9,0.8-3.2-1-5.8c-2.9,0.6-5.5,1.4-7.9,2.4c1.5-0.1,3.1-0.1,4.7,0l-0.1,9.6
						c-2.2,1.7-3.7,0.1-5.3-2c-1.5-2.2-3-4.9-4.5-4.9c0.6-0.4,1.3-0.8,2-1.1c-2.7-1.2-4.2-3-5.6-5.2c-1.4-2.2-2.6-4.8-4.5-7.5
						c1.4,3,3.4,7.5,1.4,6.9c-0.8-0.4-1.2-1.6-1.6-3.1c-0.2-0.7-0.5-1.5-0.8-2.3c-0.1-0.4-0.3-0.8-0.5-1.1c-0.2-0.4-0.3-0.6-0.4-0.8
						c0.6,3.8,0.7,6.6,0.4,8.1c-0.1,0.4-0.2,0.6-0.3,0.8c-0.1,0.1-0.1,0.2-0.2,0.2c-0.1,0-0.2,0-0.4-0.1c-0.5-0.2-1.2-0.9-2-2.2
						c-0.3-1.3-0.5-2.4-0.5-3.2c-0.1,0.6-0.2,1.4-0.3,1.8c-0.1,0.2-0.2,0.3-0.4,0.1c-0.2-0.2-0.6-0.6-1.1-1.3
						c-0.5-3.3-1-6.5-1.5-9.7c-0.3,2.5-0.4,5.3-0.5,8.2c-0.6-1-1.2-1.3-1.6-1.4l-0.2,0c-0.1,0-0.1,0-0.2,0c-0.1,0-0.3,0-0.4,0
						c-0.3,0-0.5,0-0.7,0c-0.9,0-1.7-0.3-2.6-4.2c0.2-0.5,0.5-1,0.8-1.4l-2.7-2.1l-3-2.4l-2.4,14.5L491,88.6l-3.2-6.8
						c0.9,3.6,1.1,6.6,0.9,9.2c-0.1,1.3-0.3,2.4-0.5,3.6c-0.2,1.1-0.5,2.2-0.7,3.2c-0.5,2.1-0.9,4.1-0.8,6.2c0.1,2,0.6,3.9,1.9,6.1
						c-1.9,0.5-2.4,8.5-3,13.2c-0.3,2.5-0.7,4.5-1.3,5.2c-0.6,0.5-1.5-0.1-2.8-2.9c-0.6,2.3-1.1,4.6-1.4,6.9
						c-0.2,2.5-1.1,3.8-1.7,5.6c-0.6,1.6-1.1,3.3-1.7,4.9c-0.6,1.5-1.3,2.9-1.9,4.4c-0.6,1.5-1.3,2.9-2.1,4.3
						c-0.3,0.7-0.6,1.5-1.1,2.1c-1,1.4-2.3,2.6-4.6,3.7c-0.9-0.3-1.8-0.4-2.6-0.4c-0.9,0-1.7,0.2-2.4,0.5c-1.5,0.5-2.9,1.5-4.2,2.6
						c-2.6,2.3-4.8,5.4-7.1,7.3c-2.9,5.4-5.2,9.8-7.6,14.2c-1.2,2.2-2.4,4.5-3.8,6.8c-1.4,2.3-2.9,4.6-4.6,7.2
						c-6.1-0.9-8.6,2.9-10.9,7.2c-2.4,4.2-4.4,8.9-9.2,9.6l1.2,4.3c-4-0.4-6.2,2.1-8.6,4.8c-2.4,2.7-4.9,5.6-9.7,5.9
						c-0.2,2.5-0.5,3.5-0.7,3.9c0.4-0.1,1.2,0.1,3,1.9c-2.7,0.1-4.5,4.6-7.6,0.7l0.1-0.7c-3.1-3.9-3.2,6-7.8,4.3l4.5,3.1l-3.6,2
						l0.1-1.5c-1.3,5.1-3.4,8.5-5.8,10.9c-2.5,2.4-5.3,4-8.1,5.5c-1.4,0.7-2.8,1.5-4.2,2.3c-1.4,0.8-2.7,1.7-3.9,2.8
						c-2.5,2.2-4.6,5.3-6,10c-2-5.9-0.5,4.4-4.8-0.3c-8.3-3.5-4.9,6.2-6.2,10c0.2,0.2,0.4,0.6,0.6,1.1l-5.1,3.2
						c-2.3-8.5,0.8,7.9-0.9,0.5c-3.9,1.3-7.7,3.3-11.4,5.8c-3.6,2.5-7.1,5.4-10.7,8.5c-7.1,6.1-14.2,12.6-22.3,17l1.9,1.2
						c-3.9,2.5-6.9,8-11.7,7.4c-4.8-0.5-3,8.8-3.9,9.9c-0.9,5.2-8,1.6-6.4,0.9c-2.7,3.3-1.4,11.5-7.9,12.3
						c-5.6-4.3-8.5,14.7-13.3,8.6l0.3,0.6c-9.1,0-9.2,11.5-18.5,12.3c0,0-0.2-0.5-0.3-1.1l0.8,28.3l18.9,17.9l23.6,8.5l28-26.3
						c9.8-3.9,19.6-7.9,29.4-11.9c19.3-15.8,38.5-31.9,57.5-48.6l0.5-7.9c8.9-0.8,15.2-6.6,21.4-12.7c3-3.1,6.1-6.3,9.4-9.1
						c3.3-2.7,6.9-5,11.1-6.4l-3-4c3.2-3.2,5-0.7,6.4-0.8c1.9-1.8,3.8-3.6,5.8-5.5l2.9-2.8l2.8-2.9c3.7-3.8,7.4-7.7,11.1-11.6
						c3.7-3.9,7.2-7.9,10.8-11.8c1.8-2,3.6-3.9,5.4-5.9c1.8-2,3.5-4,5.3-5.9c3.5-3.9,7.1-7.7,10.6-11.6c3.5-3.9,7-7.6,10.6-11.2
						c3.6-3.6,7.1-7.3,10.8-10.7c1.8-1.7,3.7-3.4,5.5-5c1.9-1.7,3.8-3.3,5.7-4.9c1.3-0.2,2.6-1.1,4-2.2c0.7-0.6,1.4-1.2,2.1-2
						c0.4-0.4,0.7-0.7,1.1-1.1l0.1-0.1l0,0.1c-0.1,0.1,0,0.1,0,0.1l0.1,0c0.5,0,1,0,2.1,1.3c-1.3-1.9-1.8-3.7-1.9-5.1
						c-0.1-1.4,0.1-2.5,0.4-3.3c0.2-0.6,0.4-0.9,0.5-1.2l0.2,0.9l-0.2-2.4c0.1,0.6,0.3,1.5,0.4,2.2c-0.1-0.4-0.1-0.9-0.2-1.3
						c0-0.2,0-0.3,0-0.5c0-0.1,0-0.2,0-0.3c0-0.4,0.1-0.6,0.2-0.6c0.2-0.1,0.6,0.5,0.9,1.3c0.7,1.6,1.2,4.2,1.5,5.6l-0.1,0.7
						c0.8,1,1.5,1.1,2.8,1.4l0.5,0.1l0.3,0.1c0,0,0.1,0,0.2,0.1c0,0,0.1,0,0.1,0.1l0.4,0.3c2,1.7,4.1,3.3,6.1,5
						c4,3.3,8.1,6.6,11.9,10c7.8,6.8,15.3,13.7,22,21.3c6.7,7.6,12.8,15.8,17.7,24.8c0.6,2.5,1.5,4.8,2.6,7c0.6,1.1,1.1,2.2,1.8,3.3
						c0.6,1.1,1.3,2.1,2,3.2c2.9,4.3,6.4,8.5,10.2,13.1c7.6,9.1,15.9,19,22.2,32.1c-0.1,0.9,0.4,2.3,1.6,4.2
						c1.1,1.9,2.7,4.1,4.7,6.7c1,1.3,2.1,2.6,3.4,4c1.3,1.4,2.5,2.8,4,4.2c1.4,1.4,2.9,2.9,4.5,4.3c0.8,0.7,1.6,1.4,2.4,2.1
						c0.8,0.7,1.6,1.4,2.4,2c6.4,5.4,12.6,9.7,17.3,12.7C685.6,364.8,688.9,366.6,690.1,366.8z"/>
					<path class="st0" d="M750.7,409.3l-0.2-0.1C749.4,410.9,750.1,410.4,750.7,409.3z"/>
					<path class="st0" d="M708.5,299.1c0.1,0.1,0.1,0.2,0.2,0.2l1.2-2.9L708.5,299.1z"/>
					<path class="st0" d="M759,339.2c-1.7-2.5-2.1-2.2-2.4-1.3C757.3,338.7,758.1,339.2,759,339.2z"/>
					<path class="st0" d="M783.5,421c2.3,0.8,1.7-0.6,0.8-2.4c-1.2-0.2-2.2-0.4-2.9-0.6c-0.4-0.1-0.6-0.1-0.8-0.2
						c-0.2-0.1-0.3-0.1-0.3-0.1C781.4,418.7,782.4,420.1,783.5,421z"/>
					<path class="st0" d="M785.3,391.4l1.1-1.4C785.4,390.1,785.2,390.7,785.3,391.4z"/>
				</g>
			</g>
		</g>
	</g>
</g>
<g>
	<g>
		<g>
			<g>
				<g>
					<path class="st0" d="M574.7,360.2C574.9,359.9,574.5,359.7,574.7,360.2L574.7,360.2z"/>
					<path class="st0" d="M587,616.4c0,0.1,0,0.2,0,0.3c1,0.2,1.9,0.3,2.5,0.5L587,616.4z"/>
					<path class="st0" d="M581.6,657.8c-0.1,0.1-0.2,0.2-0.3,0.3C581.9,658,582.5,658,581.6,657.8z"/>
					<path class="st0" d="M575.9,521.6c0.1-0.4-0.2-0.6-0.5-0.7C575.6,521.1,575.8,521.3,575.9,521.6z"/>
					<path class="st0" d="M567.9,284.7c0,0,0.1,0.1,0.1,0.2c0.2-0.1,0.3-0.3,0.6-0.5L567.9,284.7z"/>
					<path class="st0" d="M569.6,285.5c-0.7,0.9-1.4-0.2-1.6-0.6c-1.3,1-1.4,2-0.8,3C568.7,287.9,568.5,286,569.6,285.5z"/>
					<path class="st0" d="M556.7,145.6l0.7,0.4C557.1,145.8,556.9,145.7,556.7,145.6z"/>
					<path class="st0" d="M500.2,527.1c-0.1-0.2-0.2-0.4-0.4-0.6C499.7,526.8,499.9,527,500.2,527.1z"/>
					<path class="st0" d="M557.2,167.9l2.5,0C558.6,167.9,557.8,167.9,557.2,167.9z"/>
					<path class="st0" d="M589.6,617.1l1,0.3C590.3,617.3,590,617.2,589.6,617.1z"/>
					<path class="st0" d="M580.8,695.9c-0.8,0-1.3,0.1-1.9,0.2c0,0,0,0.1,0,0.1L580.8,695.9z"/>
					<path class="st0" d="M545.6,888.7c0.3,0,0.6-0.1,1-0.1l-1.8-0.7C544.9,888.3,545.2,888.6,545.6,888.7z"/>
					<path class="st0" d="M571.2,748.4c0.3,0,0.5,0.2,0.9,0.2c0.8-0.9,0.9-3.3,0.8-6.3l-3-0.1L571.2,748.4z"/>
					<path class="st0" d="M502.2,806.9l5.9-5.7c3.1,17.8-2.8,26.3,2.4,41.5l-1.3-0.8c-1.4,2.3,12.3,3.2-3.9,28.2l-0.6,0
						c0.1,0.9,1.3,0.8-0.2,2.6l3.6-4.3c1.6,2.5,4.5,4.7,5,8.1c-0.7,0.7-1.9,1-2.9,1.1l1.2,8.3l-3.9,2.6c2.2,2.5,10.4,1.2,5.9,8.1
						c5.7-2.7,3.5,3.3,6.4,2.4c-0.7,0.4-1.7,1.2-2.7,1.8c0.7,4,2.5,11.6,5.5,13.5c0,0,11.7-16.1,17.8-20.5c-1.4,5.7,0.7,1.5,2.6,0.3
						l-1.4-0.4c1.3-3.4,4.9-3.5,5.9-5.2c-0.3,0-0.6,0.1-1,0.1l0.5,0.2c-0.6,0.2-1.1,0.1-1.4-0.1c-0.8,0.1-1.4-0.1-1.2-1l0.4,0.2
						c-0.6-1.4,0-3.9,0.2-5l3-0.1c-5.8-2.4,8.4-17.2,8.6-20.6c3.7-3.5-1.1-7.6,0.7-11.9c0.8-6.8,4.3-3.5,6.9-7
						c1.8-4.3-3.5,0.9-3.7-0.8l4.1-5.2c0.4,3,2.2,1.3,3.4,0.7c0.4-4.4,5.8-11.5-0.2-12.7c2.8-6,5.2-6.1,5.4-8.6
						c-1.1,0.9-2,2.6-3.3,2.6c2.6-2.4-0.7-1.1-1.3-0.1c-2.7-3.6,10.6-19.1,4-19.7l1.2,0c-4.9-0.7-9.7,0.7-12.5-1.8l2.2-1.7l-2.2-2.5
						c1.6-1.7,2.9-0.9,3.5-0.9c-2.4-4.1,0.2-10,0.8-15l-13.3,5.6c3-4.3,9.2-12.1,4.8-12.9l4.5-2.6c8.4-8.7-3.9-5.9-1.3-9.3l4.8-4.4
						l0,4.3c2.4-4.3,4-6,7.1-9.5c0,0-0.1,0-0.1,0c-0.2,0.2-0.4,0.4-0.7,0.4l-0.1-0.6c-2.5-0.5-4.2-2.7-4.1-5.7
						c0.6-4.3-3.1-7.5,2-14.4l-5.1-1.6l2.9-5.2l4-0.1c-0.1,5,1.6,14.4,1.9,20.8l1.8,0.1c-0.1-3.8-1.9-8.1-1.6-10.7
						c0.8-1.2,4.9-4.5,7.6-2.2l-4-2.3c-0.7-12.7-0.9-12.8,3.4-26.2l-2,1.2c-1.2-2.6-2.4-5.2,0.8-6c0.5-8,2.9-16.3,7.8-21.6l-4.7-1
						c0.2-1.7,7.3-4.4,0.7-5l-2.2-3.6c0.3-2.3-2.4-3.7,0.2-6.3h0c0,0,0,0,0,0c0.2-0.2,0.3-0.3,0.5-0.5c-0.1,0-0.3,0-0.4,0
						c2-5.3-4.2,0.1-1.6-5.9c3.3-2-6-2-5-4.9l6.7-3.1c3.8-5.3-3-6.1-3.2-13.8c2.3-3.7,8.1-5.6,13.2-3.3c-6.3-3.2-4.1-1.4-7.1-5.8
						c2.5-0.7,3.1-0.3,5.4,0.7c2.9-4-2.3-2.4-2.3-5.4c-4.8-0.8-12.5-1.6-12.8-2.6l-1.5,1.2c-2.6-3.1-3.9-6.5-1.6-10.2l2.4,0.1
						l-1.3-3.9l3.1-0.3l-1.1-5.5l-0.8,0.8c-0.4-1.3-1.6-5.6,0-8l1.7,0.1c5.2-7-1.9-12.6-2.6-20.6l3.5,1c3.4-2.8-5.4-0.6-3.7-4
						l4.3-0.2c-5.7-2.8,1.1-3.8,3.2-5.8l-5.6,1l1.1-3.8c1.8-4.2,7.1-2.7,10-2.1L581,551l5-0.6c-5.8-1.9,0.9-2.1-2.3-5.6
						c1.9-0.3,3,0.6,3.7-0.7l-7.1-5.8l3.2,3.5l-7.3-0.3c-5.6-3.6,0.7-5.1-1.4-7.7l2.2,1.8c-1.8-4.3,1.2-4.6,2.8-7.1
						c-1.3,0.8-3.3,2-4.3,0.2c-0.4-1.3,2.5-0.8,3.3-2c-4.8-0.2-7.5-3.3-5.2-6.1c0.7,0,1.4,0.1,1.8,0.2c-0.8-0.7-2.1-1.1-0.9-2.3
						l5.4,0.6l-5.2-2.3c1.4-1.6-2.5-3.9,1.1-3.8l1.1,0.9l1.1-12.2l4.3-0.3c-5.9-1.1,2.1-6.7-5.3-6.1c4-2.4-3-9,5.3-7.8
						c0.5-8-7.6-12.2-3.8-22c7-3.6,4.5-13.1,5.2-19.4c-3.2-12.2-6-20-8.5-32.5c9.7-7.7-3.8-18.7,1.7-26.9l-4-2.1
						c6.1-5.5-1.7-13.6,4.3-21.2c-1.8-1.8-2.3-2.8-2.5-3.2c-0.2,0.3-0.9,0.9-3.4,1.1c1.7-2.2-0.6-6.5,4.4-6.3l0.5,0.5
						c5,0.2-2.5-6.5,1.8-9l-5.3,1.4l0.8-4.1l1,1.1c-12.2-17.5,4.6-25.8-6.6-42.3c5.9,2.1-3.1-3.2,3.2-3.6c7.9-4.4-1.9-7.8-4.1-11.2
						c-0.3,0-0.7,0-1.2-0.2l0.6-6c8.1,3.4-6.8-4.2,0.2-1c5.7-15.9-0.9-36.4,1.2-55l-2,0.9c0.2-4.7-2.5-10.4,0.6-14.1
						c3.1-3.7-5.6-7.5-6-8.9c-3.8-3.7,3.1-7.6,2.8-6c-1.2-4.1-8.8-7.6-6-13.6c3.3-1.2,1.4-5.1-0.4-8.7c-1.8-3.6-3.6-7,0.3-7.4
						l-0.7,0c2.4-3.9,1.2-7.5-0.2-11.1c-1.3-3.6-2.8-7.2-0.8-11.5c0,0,0.6,0.1,1.1,0.3c-8.3-4.7-16.6-9.2-25-13.5
						c-8.3,2.6-16.6,5.1-24.9,7.5c-6.4,5.3-12.8,10.4-19.2,15.5c2.7,11.7,5.2,23.5,7.4,35.5c-2.1,9.8-4.3,19.6-6.6,29.4
						c1.9,23.5,3.4,47.5,4.7,71.7l5.9,5.1c-9.8,14.5,2.2,32.6-4.8,48.2l5,0.2c0.4,4.3-2.7,4.1-3.6,5.2c1.9,40.4,9.3,81.9,3.8,118.4
						c-3.2,3.6-1.1,14.2-4.5,17c6.3,11.7,6.5,24.2,6.1,36.1l-0.6-0.4l1.1,5.6c-0.4,0.2-1,0.3-1.4,0.1c4.5,6.2,0.4,16.2-1.3,23.9
						l-0.6-0.4c0,44.9,10.1,86.4,4,131.1c-7.7,20.9,4,44.7-2.3,68.6C495.1,754.7,499.8,802.7,502.2,806.9z"/>
					<path class="st0" d="M510.3,877.5l0-0.2C508.1,877.4,508.9,877.6,510.3,877.5z"/>
					<path class="st0" d="M565.6,777.1c0,0.1,0,0.2,0,0.3l2.9-1.2L565.6,777.1z"/>
					<path class="st0" d="M568.6,840.7c0.6-2.9,0.1-3-0.7-2.6C567.8,839.1,567.9,840,568.6,840.7z"/>
					<path class="st0" d="M514.7,900.8c-0.1,1.5,1.1,0.9,2.5,0c-0.3-1.5-0.4-2.6-0.4-2.6C516.3,899,515.2,899.9,514.7,900.8z"/>
					<path class="st0" d="M543.1,894.1l1.7,0.4C544.3,893.7,543.7,893.7,543.1,894.1z"/>
				</g>
			</g>
		</g>
	</g>
</g>
</svg>
